<svg width="20" height="13" viewBox="0 0 20 13" fill="none" xmlns="http://www.w3.org/2000/svg">
<path d="M14.1914 0.510338L19.8164 5.92557C19.9375 6.04215 20 6.19633 20 6.31667C20 6.43701 19.939 6.62458 19.8169 6.74199L14.1919 12.1572C13.9477 12.3923 13.552 12.3923 13.3083 12.1572C13.0645 11.9222 13.0641 11.5412 13.3083 11.3066L17.8669 6.91798H0.625C0.279531 6.91798 0 6.64888 0 6.35014C0 6.01755 0.279531 5.74845 0.625 5.74845H17.8672L13.3086 1.35985C13.0645 1.12482 13.0645 0.743869 13.3086 0.50921C13.5527 0.27455 13.9492 0.274926 14.1914 0.510338Z" fill="#262B30"/>
</svg>
