<svg width="21" height="13" viewBox="0 0 21 13" fill="none" xmlns="http://www.w3.org/2000/svg">
<path d="M14.2764 0.676842L19.9014 6.09207C20.0225 6.20865 20.085 6.36283 20.085 6.48317C20.085 6.60351 20.0239 6.79109 19.9018 6.90849L14.2768 12.3237C14.0327 12.5588 13.637 12.5588 13.3932 12.3237C13.1495 12.0887 13.1491 11.7077 13.3932 11.4731L17.9518 7.08449H0.709961C0.364492 7.08449 0.0849609 6.81538 0.0849609 6.51664C0.0849609 6.18406 0.364492 5.91495 0.709961 5.91495H17.9522L13.3936 1.52636C13.1494 1.29132 13.1494 0.910373 13.3936 0.675713C13.6377 0.441053 14.0342 0.441429 14.2764 0.676842Z" fill="#777E84"/>
</svg>
