<svg width="10" height="16" viewBox="0 0 10 16" fill="none" xmlns="http://www.w3.org/2000/svg">
<mask id="path-1-inside-1_164_5730" fill="white">
<path d="M9.27536 11.3531L5.02812 15.8531C4.93669 15.95 4.81576 16 4.72138 16C4.62699 16 4.47988 15.9512 4.38779 15.8535L0.140555 11.3535C-0.0437875 11.1582 -0.0437875 10.8416 0.140555 10.6466C0.324896 10.4516 0.623678 10.4513 0.807724 10.6466L4.24976 14.2935L4.24976 0.5C4.24976 0.223625 4.46082 -2.16513e-07 4.69513 -2.06271e-07C4.95598 -1.94869e-07 5.16704 0.223625 5.16704 0.5L5.16704 14.2937L8.60908 10.6469C8.79342 10.4516 9.0922 10.4516 9.27625 10.6469C9.46029 10.8422 9.46 11.1594 9.27536 11.3531Z"/>
</mask>
<path d="M9.27536 11.3531L5.02812 15.8531C4.93669 15.95 4.81576 16 4.72138 16C4.62699 16 4.47988 15.9512 4.38779 15.8535L0.140555 11.3535C-0.0437875 11.1582 -0.0437875 10.8416 0.140555 10.6466C0.324896 10.4516 0.623678 10.4513 0.807724 10.6466L4.24976 14.2935L4.24976 0.5C4.24976 0.223625 4.46082 -2.16513e-07 4.69513 -2.06271e-07C4.95598 -1.94869e-07 5.16704 0.223625 5.16704 0.5L5.16704 14.2937L8.60908 10.6469C8.79342 10.4516 9.0922 10.4516 9.27625 10.6469C9.46029 10.8422 9.46 11.1594 9.27536 11.3531Z" fill="#262B30"/>
<path d="M9.27536 11.3531L8.55143 10.6632L8.54813 10.6667L9.27536 11.3531ZM5.02812 15.8531L4.30089 15.1667L5.02812 15.8531ZM4.38779 15.8535L5.11547 15.1676L5.11503 15.1671L4.38779 15.8535ZM0.140555 11.3535L0.867791 10.6671L0.140555 11.3535ZM0.807724 10.6466L0.0799403 11.3324L0.0804887 11.333L0.807724 10.6466ZM4.24976 14.2935L3.52252 14.9799L5.24976 16.8099L5.24976 14.2935L4.24976 14.2935ZM5.16704 14.2937L4.16704 14.2937L4.16704 16.8102L5.89428 14.9801L5.16704 14.2937ZM8.60908 10.6469L9.33631 11.3333L9.33631 11.3333L8.60908 10.6469ZM8.54813 10.6667L4.30089 15.1667L5.75536 16.5395L10.0026 12.0395L8.54813 10.6667ZM4.30089 15.1667C4.34604 15.1189 4.39891 15.0816 4.4577 15.0545C4.51202 15.0295 4.60053 15 4.72138 15L4.72138 17C5.12526 17 5.49988 16.8102 5.75536 16.5395L4.30089 15.1667ZM4.72138 15C4.82649 15 4.8943 15.0224 4.93014 15.0369C4.97001 15.0531 5.04121 15.0888 5.11547 15.1676L3.66012 16.5394C3.96206 16.8597 4.38358 17 4.72138 17L4.72138 15ZM5.11503 15.1671L0.867791 10.6671L-0.586682 12.0399L3.66056 16.5399L5.11503 15.1671ZM0.867791 10.6671C1.04684 10.8568 1.04761 11.1428 0.867241 11.3336L-0.586132 9.95966C-1.13518 10.5405 -1.13442 11.4596 -0.586681 12.0399L0.867791 10.6671ZM0.867241 11.3336C0.658085 11.5548 0.291717 11.5572 0.0799403 11.3324L1.53551 9.96082C0.955638 9.34545 -0.00829261 9.34841 -0.586132 9.95966L0.867241 11.3336ZM0.0804887 11.333L3.52252 14.9799L4.97699 13.6071L1.53496 9.96024L0.0804887 11.333ZM5.24976 14.2935L5.24976 0.5L3.24976 0.5L3.24976 14.2935L5.24976 14.2935ZM5.24976 0.5C5.24976 0.617511 5.20511 0.730198 5.12524 0.818243C5.04816 0.903212 4.90239 1 4.69513 1L4.69513 -1C3.81907 -1 3.24976 -0.234732 3.24976 0.5L5.24976 0.5ZM4.69513 1C4.35002 1 4.16704 0.720659 4.16704 0.5L6.16704 0.5C6.16704 -0.273409 5.56194 -1 4.69513 -1L4.69513 1ZM4.16704 0.5L4.16704 14.2937L6.16704 14.2937L6.16704 0.5L4.16704 0.5ZM5.89428 14.9801L9.33631 11.3333L7.88184 9.96049L4.43981 13.6074L5.89428 14.9801ZM9.33631 11.3333C9.12631 11.5558 8.75949 11.5566 8.54846 11.3327L10.004 9.96107C9.42491 9.3465 8.46053 9.34736 7.88184 9.96049L9.33631 11.3333ZM8.54846 11.3327C8.37015 11.1435 8.36738 10.8564 8.55144 10.6632L9.99929 12.043C10.5526 11.4624 10.5504 10.5409 10.004 9.96107L8.54846 11.3327Z" fill="#262B30" mask="url(#path-1-inside-1_164_5730)"/>
</svg>
